<svg xmlns="http://www.w3.org/2000/svg" version="1.0" width="2000.000000pt" height="2000.000000pt" viewBox="0 0 2000.000000 2000.000000" preserveAspectRatio="xMidYMid meet">

<g transform="translate(0.000000,2000.000000) scale(0.100000,-0.100000)" fill="#ffffff" stroke="none">
<path d="M3608 10913 c-15 -16 -37 -61 -163 -328 -23 -49 -198 -402 -389 -783 -190 -381 -346 -695 -346 -697 0 -3 63 -5 139 -5 l139 0 43 78 c55 100 496 977 533 1062 16 36 36 73 44 83 15 16 17 15 42 -25 15 -24 61 -115 102 -203 86 -181 439 -902 468 -955 l19 -35 135 -3 c112 -2 136 0 136 12 0 7 -32 78 -71 157 -40 79 -145 299 -234 489 -89 190 -206 440 -261 555 -141 300 -297 609 -310 613 -6 1 -18 -5 -26 -15z" fill="#ffffff"/>
<path d="M4940 10907 c-217 -56 -368 -224 -410 -455 -27 -149 60 -357 199 -476 101 -85 118 -90 346 -96 221 -6 233 -9 301 -77 48 -48 64 -89 64 -165 0 -161 -140 -288 -319 -289 -118 -1 -191 30 -269 115 -41 46 -53 67 -62 114 -7 31 -14 62 -15 69 -4 13 -171 22 -215 12 -20 -4 -26 -12 -28 -42 -4 -45 31 -183 60 -241 31 -61 162 -187 241 -230 162 -90 430 -78 610 28 67 39 167 143 204 212 51 97 76 194 71 277 -12 176 -143 364 -308 441 -39 17 -71 21 -235 26 -212 6 -248 16 -314 81 -93 93 -95 247 -5 348 65 72 120 95 236 99 118 5 177 -12 240 -67 66 -58 95 -120 103 -218 l8 -83 107 0 c60 0 115 3 124 6 13 5 16 23 16 93 0 155 -43 257 -154 366 -40 40 -98 85 -133 103 -138 72 -304 90 -463 49z" fill="#ffffff"/>
<path d="M11565 10923 c-177 -39 -272 -79 -385 -163 -173 -128 -315 -342 -355 -535 -21 -103 -20 -352 1 -448 63 -276 275 -521 551 -637 208 -87 543 -76 745 26 80 40 191 113 253 167 45 40 50 27 -54 151 -35 42 -67 76 -71 76 -4 0 -29 -17 -56 -38 -78 -61 -162 -109 -254 -144 -81 -31 -91 -33 -225 -32 -135 0 -143 1 -223 33 -259 103 -422 314 -439 565 -11 170 33 322 132 462 88 123 235 218 387 250 112 24 264 13 365 -26 89 -34 198 -96 260 -146 24 -20 47 -33 53 -29 5 3 31 34 57 68 26 34 55 71 65 81 26 28 23 37 -24 82 -166 158 -398 245 -645 243 -65 -1 -127 -3 -138 -6z" fill="#ffffff"/>
<path d="M13118 10910 c-184 -40 -315 -114 -449 -250 -110 -112 -178 -221 -224 -361 -111 -332 -33 -682 207 -935 230 -242 554 -335 885 -254 309 75 588 354 657 657 9 40 16 74 16 77 0 4 -58 6 -130 6 -121 0 -130 -1 -130 -19 0 -10 -21 -61 -46 -112 -38 -77 -62 -109 -128 -174 -92 -90 -157 -132 -266 -172 -67 -24 -88 -27 -195 -27 -111 0 -127 3 -208 33 -342 128 -513 459 -421 816 28 106 80 192 173 285 135 133 258 184 446 184 157 0 278 -41 401 -135 101 -77 200 -231 233 -360 l19 -74 127 -3 128 -3 -7 60 c-19 169 -99 340 -225 483 -104 117 -312 240 -461 273 -119 26 -298 28 -402 5z" fill="#ffffff"/>
<path d="M9600 10909 c-244 -30 -475 -175 -619 -388 -117 -172 -183 -421 -160 -601 28 -224 112 -400 264 -554 122 -124 289 -221 430 -251 108 -23 360 -21 456 4 358 92 638 418 679 792 14 123 -1 273 -36 373 -103 295 -354 533 -639 606 -87 22 -273 32 -375 19z m290 -133 c171 -37 331 -133 448 -270 51 -60 135 -226 157 -311 102 -397 -136 -826 -525 -947 -65 -20 -96 -23 -230 -23 -134 0 -165 3 -230 23 -93 29 -186 79 -267 144 -124 98 -189 192 -249 358 -36 101 -38 110 -38 240 -1 143 6 182 60 319 87 223 289 397 534 460 91 24 246 27 340 7z" fill="#ffffff"/>
<path d="M9554 10665 c-148 -32 -295 -142 -395 -297 -52 -81 -98 -228 -106 -338 -10 -146 45 -321 141 -447 150 -198 385 -296 628 -263 153 21 267 74 377 175 73 68 131 156 178 271 32 78 36 101 40 199 6 133 -10 210 -66 328 -74 152 -175 254 -326 327 -44 21 -110 43 -146 49 -87 15 -249 13 -325 -4z" fill="#ffffff"/>
<path d="M5960 10903 c-83 -3 -127 -8 -132 -16 -9 -14 -10 -137 -2 -189 l7 -38 258 0 c200 0 259 -3 259 -12 0 -7 0 -146 0 -308 0 -162 2 -508 6 -767 l7 -473 119 0 118 0 2 778 3 777 270 5 270 5 3 116 c2 112 2 117 -19 122 -22 6 -949 6 -1169 0z" fill="#ffffff"/>
<path d="M7410 10903 c-35 -2 -68 -9 -72 -16 -4 -7 -8 -412 -8 -900 l0 -888 133 3 132 3 -3 705 c-2 388 -1 738 3 778 l7 73 306 -3 307 -3 47 -28 c101 -61 141 -132 142 -253 0 -70 -3 -86 -28 -128 -15 -26 -46 -60 -68 -77 -69 -49 -122 -59 -315 -59 -95 0 -173 -3 -173 -6 0 -27 614 -874 709 -976 l25 -28 148 0 c81 0 148 4 148 9 0 11 -169 246 -374 521 -93 123 -171 230 -173 237 -3 7 1 13 10 13 31 0 154 71 193 112 94 98 133 178 156 323 14 88 -8 209 -55 304 -68 138 -235 262 -378 281 -69 9 -672 11 -819 3z" fill="#ffffff"/>
<path d="M14393 10903 c-13 -2 -23 -5 -23 -6 -5 -27 -11 -1752 -6 -1771 l7 -27 127 3 127 3 3 778 2 779 238 -4 c218 -3 242 -6 302 -27 162 -58 282 -148 364 -273 77 -116 119 -305 97 -440 -42 -257 -198 -448 -429 -524 -60 -19 -104 -25 -211 -29 -74 -3 -137 -8 -140 -11 -9 -8 -14 -201 -7 -230 6 -24 8 -24 119 -24 174 0 257 18 404 85 106 49 176 99 269 193 126 127 214 289 244 452 17 90 15 270 -4 358 -28 131 -104 285 -200 404 -100 123 -288 245 -451 291 -63 18 -106 20 -440 23 -203 1 -380 0 -392 -3z" fill="#ffffff"/>
<path d="M16066 10894 c-14 -14 -16 -106 -16 -892 0 -482 4 -883 8 -890 11 -17 44 -17 680 -14 l542 2 0 125 0 125 -484 0 c-341 0 -487 3 -492 11 -3 6 -3 301 1 655 l7 644 482 2 481 3 0 120 0 120 -597 3 c-532 2 -598 0 -612 -14z" fill="#ffffff"/>
<path d="M16540 10125 c-7 -8 -10 -54 -8 -126 l3 -114 303 -3 302 -2 1 97 c1 54 2 109 2 122 1 19 -6 27 -28 33 -17 4 -150 8 -297 7 -209 0 -269 -3 -278 -14z" fill="#ffffff"/>
<path d="M9685 8683 c-81 -20 -209 -69 -255 -97 -30 -19 -87 -67 -127 -107 l-72 -72 -98 18 c-129 23 -348 31 -442 15 -53 -9 -70 -15 -60 -22 10 -7 7 -8 -10 -4 -37 8 -107 -27 -131 -66 -27 -45 -27 -125 1 -180 30 -59 99 -128 186 -189 88 -61 356 -199 426 -220 46 -13 51 -19 95 -94 54 -92 185 -230 276 -289 67 -44 156 -77 268 -100 103 -21 136 -20 253 8 127 31 180 50 227 81 47 31 79 31 238 0 284 -57 554 -56 661 1 131 72 131 185 0 306 -110 103 -191 153 -481 300 l-65 33 -12 70 c-6 39 -27 107 -46 151 -90 214 -262 366 -493 435 -84 25 -112 29 -208 28 -61 -1 -120 -4 -131 -6z m-595 -293 c102 -16 110 -19 110 -40 0 -10 -5 -22 -12 -26 -6 -4 -99 -7 -207 -8 -180 -1 -199 -3 -236 -22 -23 -13 -39 -28 -39 -38 1 -9 -3 -13 -9 -9 -7 4 -8 -6 -4 -31 7 -45 52 -125 75 -133 9 -4 28 -18 42 -31 33 -33 81 -62 103 -62 9 0 17 -4 17 -10 0 -13 52 -38 253 -124 342 -146 692 -252 1092 -331 234 -46 310 -54 480 -51 176 3 214 19 215 95 0 82 -108 173 -345 291 -43 21 -50 30 -53 58 -2 17 -1 32 2 32 12 0 134 -55 158 -72 14 -10 29 -18 33 -18 11 0 123 -68 195 -119 36 -25 69 -45 73 -43 5 1 6 -2 3 -7 -3 -5 0 -11 8 -14 8 -3 37 -33 65 -67 43 -51 51 -68 51 -101 0 -22 -4 -49 -10 -59 -30 -57 -176 -87 -370 -76 -114 6 -335 31 -349 40 -4 3 -68 17 -142 31 -277 55 -650 156 -874 238 -154 57 -344 137 -351 148 -3 5 -15 9 -27 9 -12 0 -39 11 -59 25 -20 14 -41 25 -46 25 -5 0 -15 7 -23 16 -7 8 -21 13 -31 10 -11 -2 -22 2 -25 10 -3 8 -12 13 -19 10 -8 -3 -27 8 -43 24 -15 17 -35 30 -43 30 -8 0 -54 37 -102 81 -88 82 -136 154 -136 203 0 36 43 80 92 96 24 7 47 17 53 22 13 11 357 10 435 -2z m54 -131 c3 -2 -2 -29 -10 -58 -8 -30 -17 -104 -20 -163 -4 -59 -9 -108 -11 -108 -14 0 -262 151 -295 179 -38 33 -68 83 -68 114 0 15 35 32 80 41 29 5 318 1 324 -5z m1497 -461 c104 -55 238 -147 260 -178 35 -49 33 -66 -8 -85 -33 -16 -59 -17 -240 -12 -111 3 -207 8 -213 12 -6 4 3 30 24 68 19 34 47 101 63 149 15 49 30 88 32 88 2 0 39 -19 82 -42z" fill="#ffffff"/>
</g>
</svg>